<svg id="wave" style="transform:rotate(0deg); transition: 0.3s" viewBox="0 0 1440 410" version="1.1" xmlns="http://www.w3.org/2000/svg">
<defs><linearGradient id="sw-gradient-0" x1="0" x2="0" y1="1" y2="0">
<stop stop-color="rgba(0, 0,0, 1)" offset="0%">
</stop><stop stop-color="rgba(0, 0, 0, 1)" offset="100%">
</stop></linearGradient></defs>
<path style="transform:translate(0, 0px); opacity:1" fill="url(#sw-gradient-0)"
d="M0,369L120,362.2C240,355,480,342,720,307.5C960,273,1200,219,1440,184.5C1680,150,1920,137,2160,150.3C2400,164,2640,205,2880,218.7C3120,232,3360,219,3600,198.2C3840,178,4080,150,4320,143.5C4560,137,4800,150,5040,170.8C5280,191,5520,219,5760,218.7C6000,219,6240,191,6480,191.3C6720,191,6960,219,7200,205C7440,191,7680,137,7920,116.2C8160,96,8400,109,8640,116.2C8880,123,9120,123,9360,150.3C9600,178,9840,232,10080,211.8C10320,191,10560,96,10800,75.2C11040,55,11280,109,11520,170.8C11760,232,12000,301,12240,307.5C12480,314,12720,260,12960,239.2C13200,219,13440,232,13680,232.3C13920,232,14160,219,14400,205C14640,191,14880,178,15120,191.3C15360,205,15600,246,15840,246C16080,246,16320,205,16560,205C16800,205,17040,246,17160,266.5L17280,287L17280,410L17160,410C17040,410,16800,410,16560,410C16320,410,16080,410,15840,410C15600,410,15360,410,15120,410C14880,410,14640,410,14400,410C14160,410,13920,410,13680,410C13440,410,13200,410,12960,410C12720,410,12480,410,12240,410C12000,410,11760,410,11520,410C11280,410,11040,410,10800,410C10560,410,10320,410,10080,410C9840,410,9600,410,9360,410C9120,410,8880,410,8640,410C8400,410,8160,410,7920,410C7680,410,7440,410,7200,410C6960,410,6720,410,6480,410C6240,410,6000,410,5760,410C5520,410,5280,410,5040,410C4800,410,4560,410,4320,410C4080,410,3840,410,3600,410C3360,410,3120,410,2880,410C2640,410,2400,410,2160,410C1920,410,1680,410,1440,410C1200,410,960,410,720,410C480,410,240,410,120,410L0,410Z">
</path>
<defs>
<linearGradient id="sw-gradient-1" x1="0" x2="0" y1="1" y2="0">
<stop stop-color="rgba(0, 0, 0, 1)" offset="0%"></stop>
<stop stop-color="rgba(0, 0, 0, 1)" offset="100%"></stop>
</linearGradient></defs>
<path style="transform:translate(0, 50px); opacity:0.9" fill="url(#sw-gradient-1)"
 d="M0,82L120,109.3C240,137,480,191,720,177.7C960,164,1200,82,1440,61.5C1680,41,1920,82,2160,136.7C2400,191,2640,260,2880,259.7C3120,260,3360,191,3600,184.5C3840,178,4080,232,4320,259.7C4560,287,4800,287,5040,252.8C5280,219,5520,150,5760,157.2C6000,164,6240,246,6480,259.7C6720,273,6960,219,7200,177.7C7440,137,7680,109,7920,88.8C8160,68,8400,55,8640,54.7C8880,55,9120,68,9360,82C9600,96,9840,109,10080,157.2C10320,205,10560,287,10800,273.3C11040,260,11280,150,11520,129.8C11760,109,12000,178,12240,205C12480,232,12720,219,12960,177.7C13200,137,13440,68,13680,82C13920,96,14160,191,14400,205C14640,219,14880,150,15120,109.3C15360,68,15600,55,15840,61.5C16080,68,16320,96,16560,116.2C16800,137,17040,150,17160,157.2L17280,164L17280,410L17160,410C17040,410,16800,410,16560,410C16320,410,16080,410,15840,410C15600,410,15360,410,15120,410C14880,410,14640,410,14400,410C14160,410,13920,410,13680,410C13440,410,13200,410,12960,410C12720,410,12480,410,12240,410C12000,410,11760,410,11520,410C11280,410,11040,410,10800,410C10560,410,10320,410,10080,410C9840,410,9600,410,9360,410C9120,410,8880,410,8640,410C8400,410,8160,410,7920,410C7680,410,7440,410,7200,410C6960,410,6720,410,6480,410C6240,410,6000,410,5760,410C5520,410,5280,410,5040,410C4800,410,4560,410,4320,410C4080,410,3840,410,3600,410C3360,410,3120,410,2880,410C2640,410,2400,410,2160,410C1920,410,1680,410,1440,410C1200,410,960,410,720,410C480,410,240,410,120,410L0,410Z">
</path></svg>
